<svg xmlns="http://www.w3.org/2000/svg" viewBox="0 0 512 512" width="512" height="512">
  <rect width="512" height="512" rx="128" fill="#111827"/>
  <circle cx="256" cy="256" r="180" fill="#d6bcfa" opacity="0.15"/>
  <!-- Phone & Car Intelligence Icon -->
  <g transform="translate(136, 136)" fill="none" stroke="#d6bcfa" stroke-width="20" stroke-linecap="round" stroke-linejoin="round">
    <!-- Phone handset -->
    <path d="M40 40h40l20 50-25 25c20 38 47 65 85 85l25-25 50 20v40c0 11-9 20-20 20C116 250 10 144 10 30c0-11 9-20 20-20z" fill="#111827"/>
    <!-- Signal pulse / AI spark -->
    <path d="M150 50c30 0 55 25 55 55"/>
    <path d="M150 20c45 0 85 40 85 85"/>
    <!-- Car silhouette overlay in lavender accent -->
    <path d="M60 170l20-30h60l20 30h30c10 0 15 5 15 15v25h-160v-25c0-10 5-15 15-15z" stroke="#ffffff" stroke-width="12" fill="#d6bcfa"/>
    <circle cx="85" cy="210" r="12" fill="#111827" stroke="#ffffff" stroke-width="6"/>
    <circle cx="165" cy="210" r="12" fill="#111827" stroke="#ffffff" stroke-width="6"/>
  </g>
</svg>
